<svg xmlns="http://www.w3.org/2000/svg" width="77.734" height="84.423" viewBox="0 0 77.734 84.423"><g transform="translate(-1124.818 -510.015)"><path d="M10.363,0H37.216V25.833L0,37.213Z" transform="translate(1161.672 592.364) rotate(-172)" fill="#00d396"/><circle cx="26.051" cy="26.051" r="26.051" transform="translate(1176.413 594.439) rotate(-172)" fill="#00d396"/><g transform="translate(1130.206 510.015)"><g transform="translate(0 15.495)"><path d="M58.881,97.489l-7.834-2.1a2.928,2.928,0,0,0-2.507.5,2.376,2.376,0,0,0-.922,1.613l-.868,3.239a2.418,2.418,0,0,0,0,1.893,2.777,2.777,0,0,0,.329.581c-.829,1.727-1.775,3.856-2.767,6.225l0,.008c-.867,2.07-1.769,4.321-2.66,6.645-3.038.824-6.911,4.38-8.038,8.584L26.155,152.5a5.238,5.238,0,0,0,3.928,6.259l7.634,2.046h0l7.633,2.045a5.8,5.8,0,0,0,1.5.2,5.511,5.511,0,0,0,2.5-.593,4.821,4.821,0,0,0,2.531-3.062l1.026-3.828v0h0l6.43-24c1.127-4.205-.45-9.221-2.669-11.454.559-3.52,1.024-6.921,1.352-9.859,0-.008,0-.017,0-.026.164-1.472.294-2.826.384-4.02a2.8,2.8,0,0,0,1.481-1.793l.948-3.539A2.771,2.771,0,0,0,58.881,97.489ZM48.741,158.555a1.612,1.612,0,0,1-.863,1,2.364,2.364,0,0,1-1.685.152l-7.633-2.045h0l-7.634-2.046a2.025,2.025,0,0,1-1.628-2.276l.605-2.259,19.444,5.21Zm1.447-5.4-19.444-5.21,5.589-20.858,19.444,5.21Zm6.26-24.045-19.1-5.119c1.41-2.783,4.271-4.8,5.535-4.829a1.626,1.626,0,0,0,1.48-1.049c.845-2.228,1.7-4.4,2.535-6.414h7.684c-.268,2.183-.6,4.57-.984,7.036l-.4-.107a1.626,1.626,0,0,0-.842,3.141l1.867.5C55.281,123.116,56.61,126.139,56.448,129.109Zm.4-25.9-.038,0-.036,0q-.059,0-.118.011l-.04.006c-.039.006-.077.014-.115.023l-.034.007c-.047.012-.093.026-.138.042l-.043.017c-.03.012-.061.024-.09.038l-.054.027-.075.04-.052.031c-.026.016-.051.033-.076.05l-.043.03c-.033.025-.065.051-.1.078l-.015.012c-.037.033-.071.067-.105.1l-.02.023c-.026.028-.05.058-.074.088l-.028.038q-.029.04-.056.081l-.029.047c-.015.026-.03.052-.044.079s-.019.036-.028.054-.023.053-.034.079-.017.039-.024.059c-.014.039-.027.08-.038.121s-.024.1-.033.148c0,.011,0,.021-.007.032s0,.014,0,.021c-.007.049-.013.1-.016.147-.059,1.065-.162,2.315-.3,3.7H48.27c.841-1.932,1.623-3.624,2.3-4.958.021-.042.04-.086.058-.131l.01-.024c0-.009.006-.018.009-.027.018-.049.033-.1.047-.149s.02-.082.027-.124c0-.02.006-.04.008-.061s.008-.06.01-.089,0-.038,0-.057,0-.064,0-.1,0-.034,0-.051c0-.035,0-.07-.008-.1,0-.014,0-.027,0-.04-.006-.041-.013-.083-.022-.123l0-.02q-.017-.074-.04-.145l0-.008c-.014-.042-.03-.084-.048-.125l-.02-.044c-.013-.028-.027-.057-.042-.084l-.029-.052c-.014-.025-.029-.049-.045-.073l-.034-.051c-.018-.025-.037-.049-.056-.074s-.021-.027-.032-.041c-.031-.036-.063-.07-.1-.1l-.032-.029c-.026-.025-.053-.048-.081-.071l-.037-.029c-.029-.023-.06-.044-.091-.065l-.034-.022-.031-.02.724-2.7,6.9,1.848Z" transform="translate(-25.995 -95.295)"/></g><g transform="translate(20.12 37.523)"><g transform="translate(0)"><path d="M154.067,230.829l-.038-.01a1.626,1.626,0,1,0-.838,3.142l.038.01a1.626,1.626,0,0,0,.838-3.142Z" transform="translate(-151.983 -230.763)"/></g></g><g transform="translate(11.072 54.189)"><g transform="translate(0)"><path d="M105.9,336.328a6.132,6.132,0,1,0,.612,4.652A6.091,6.091,0,0,0,105.9,336.328Zm-2.529,3.81a2.879,2.879,0,1,1-.287-2.185A2.881,2.881,0,0,1,103.367,340.138Z" transform="translate(-94.453 -333.261)"/></g></g><g transform="translate(37.407 15.495)"><path d="M305.91,152.5l-7.457-27.829c-1.127-4.205-5-7.761-8.038-8.584-.891-2.324-1.793-4.576-2.66-6.645l0-.008c-.992-2.369-1.938-4.5-2.767-6.225a2.782,2.782,0,0,0,.329-.581,2.419,2.419,0,0,0,0-1.894l-.868-3.239a2.375,2.375,0,0,0-.922-1.612,2.927,2.927,0,0,0-2.507-.5l-7.834,2.1a2.77,2.77,0,0,0-1.956,3.388l.948,3.539a2.8,2.8,0,0,0,1.481,1.793c.09,1.194.219,2.547.384,4.018,0,.01,0,.021,0,.031.328,2.937.793,6.337,1.351,9.855-2.219,2.233-3.8,7.249-2.669,11.454l7.457,27.829a4.821,4.821,0,0,0,2.531,3.062,5.508,5.508,0,0,0,2.5.593,5.792,5.792,0,0,0,1.5-.2l15.268-4.091a5.61,5.61,0,0,0,3.267-2.341A4.82,4.82,0,0,0,305.91,152.5Zm-30.446-49.275-.073-.01-.084-.008-.058,0-.03,0-.723-2.7,6.9-1.847.724,2.7-.031.02-.034.022q-.046.031-.09.064l-.038.029c-.028.023-.054.046-.08.07l-.033.03c-.033.033-.066.067-.1.1-.012.014-.023.029-.034.043s-.037.047-.055.071-.024.035-.035.053-.03.047-.044.071l-.03.053c-.015.027-.028.055-.041.082s-.015.03-.021.046c-.017.04-.033.081-.047.122l0,.011c-.016.047-.029.1-.04.145l0,.022c-.009.04-.016.08-.021.121,0,.014,0,.028,0,.042,0,.034-.007.069-.008.1,0,.017,0,.034,0,.051s0,.063,0,.094,0,.038,0,.058.007.059.011.089,0,.04.008.06q.011.065.028.129c.012.045.026.09.042.135,0,.012.007.024.012.036l.006.015c.019.048.04.1.063.14.674,1.334,1.457,3.026,2.3,4.957h-6.674c-.14-1.389-.243-2.64-.3-3.7,0-.049-.009-.1-.016-.148,0-.007,0-.013,0-.02s0-.021-.007-.032c-.009-.048-.018-.1-.031-.142s-.025-.086-.041-.128c-.007-.019-.015-.036-.022-.055s-.023-.057-.036-.084-.017-.034-.026-.051-.03-.056-.046-.083l-.027-.044q-.027-.043-.057-.083l-.027-.037c-.023-.03-.047-.058-.072-.086l-.023-.026c-.033-.035-.067-.069-.1-.1l-.038-.032c-.023-.02-.046-.039-.07-.057s-.041-.03-.062-.044l-.051-.034-.075-.044-.042-.023c-.028-.015-.057-.029-.086-.042l-.027-.011a1.6,1.6,0,0,0-.308-.1Zm2.38,19.042,1.866-.5a1.626,1.626,0,1,0-.842-3.141l-.4.107c-.383-2.466-.716-4.853-.984-7.036h7.684c.831,2.015,1.69,4.185,2.535,6.414a1.626,1.626,0,0,0,1.479,1.049c1.264.032,4.125,2.046,5.535,4.829l-19.1,5.119C275.455,126.139,276.784,123.116,277.844,122.27Zm4.034,30.885L276.289,132.3l19.444-5.21,5.589,20.858Zm20.646,1.492a2.364,2.364,0,0,1-1.383.974l-15.268,4.091a2.363,2.363,0,0,1-1.685-.152,1.612,1.612,0,0,1-.863-1l-.605-2.259,19.444-5.21.605,2.259A1.612,1.612,0,0,1,302.524,154.647Z" transform="translate(-271.133 -95.295)"/></g><g transform="translate(48.907 37.523)"><path d="M343.006,231.968a1.626,1.626,0,0,0-1.991-1.15l-.038.01a1.626,1.626,0,1,0,.841,3.141l.038-.01A1.626,1.626,0,0,0,343.006,231.968Z" transform="translate(-339.771 -230.762)"/></g><g transform="translate(48.988 54.189)"><path d="M354.153,337.805a6.131,6.131,0,1,0-5.925,7.719h0a6.152,6.152,0,0,0,1.589-.21,6.131,6.131,0,0,0,4.335-7.509Zm-3.429,3.026a2.86,2.86,0,0,1-1.748,1.341,2.891,2.891,0,0,1-.748.1h0a2.88,2.88,0,1,1,2.5-1.44Z" transform="translate(-342.098 -333.26)"/></g><g transform="translate(34.534 0)"><g transform="translate(0)"><path d="M247.622,0A1.626,1.626,0,0,0,246,1.626V5.978a1.626,1.626,0,1,0,3.252,0V1.626A1.626,1.626,0,0,0,247.622,0Z" transform="translate(-245.996)"/></g></g><g transform="translate(25.939 3.589)"><path d="M195.569,26.645l-2.211-3.769a1.626,1.626,0,1,0-2.805,1.645l2.211,3.769a1.626,1.626,0,1,0,2.805-1.645Z" transform="translate(-190.329 -22.073)"/></g><g transform="translate(40.917 3.589)"><g transform="translate(0)"><path d="M292.725,22.3a1.626,1.626,0,0,0-2.225.58l-2.211,3.769a1.626,1.626,0,1,0,2.805,1.645l2.211-3.769A1.626,1.626,0,0,0,292.725,22.3Z" transform="translate(-288.065 -22.073)"/></g></g></g></g></svg>