<svg xmlns="http://www.w3.org/2000/svg" width="57.349" height="71.543" viewBox="0 0 57.349 71.543"><g transform="translate(-1134.651 -676)"><path d="M0,26A26,26,0,0,1,25.2.012L25.2,0h.385c.138,0,.276,0,.414,0s.276,0,.414,0H52V25.783h0c0,.073,0,.144,0,.217A26,26,0,0,1,0,26Z" transform="translate(1140 676)" fill="#00d396"/><g transform="translate(1134.651 685.911)"><path d="M150.13,109.809h-6.618a7.769,7.769,0,1,0-13.2-8.183,6.563,6.563,0,0,0-8.2,0,7.769,7.769,0,1,0-13.2,8.183h-6.618A4.293,4.293,0,0,0,98,114.1v6.242a4.289,4.289,0,0,0,2.142,3.71v29.32a6.079,6.079,0,0,0,6.072,6.072H146.2a6.079,6.079,0,0,0,6.072-6.072v-29.32a4.29,4.29,0,0,0,2.142-3.71V114.1A4.293,4.293,0,0,0,150.13,109.809Zm-17.337-4.227a4.2,4.2,0,1,1,4.2,4.2h-4.2Zm1.834,7.8,5.422,9.555-1.277-.343a1.785,1.785,0,0,0-2.187,1.263l-.312,1.167-6.548-11.641h4.9Zm-8.416-9.62a3.012,3.012,0,1,1-3.012,3.012A3.016,3.016,0,0,1,126.21,103.759Zm-3.352,9.62h0l-5.465,9.551-.324-1.211a1.785,1.785,0,0,0-2.187-1.263l-1.264.339,4.23-7.417Zm-7.433-12a4.207,4.207,0,0,1,4.2,4.2v4.2h-4.2a4.2,4.2,0,1,1,0-8.4Zm-13.853,18.959V114.1a.718.718,0,0,1,.718-.718h11.447l-4.378,7.677H102.29A.718.718,0,0,1,101.572,120.339Zm27.851,35.532H106.215a2.5,2.5,0,0,1-2.5-2.5V124.627h4.756c.021.031.039.064.062.094a1.786,1.786,0,0,0,1.876.634l3.673-.986.983,3.674a1.785,1.785,0,0,0,3.274.425l1.087-1.9v18.055a1.785,1.785,0,1,0,3.571,0V124.732h6.427v31.138Zm-6.9-34.709,3.775-6.6,3.71,6.6ZM148.7,153.369a2.5,2.5,0,0,1-2.5,2.5h-13.21V126.477l2.314,4.114a1.785,1.785,0,0,0,1.556.91,1.756,1.756,0,0,0,.224-.014,1.785,1.785,0,0,0,1.5-1.31l.983-3.674,3.673.986a1.785,1.785,0,0,0,2.016-2.606l-.146-.256h3.59Zm2.142-33.03a.718.718,0,0,1-.718.718h-7.042l-4.356-7.677h11.4a.718.718,0,0,1,.718.717Z" transform="translate(-98.001 -97.809)"/><g transform="translate(21.425 51.546)"><path d="M221.039,387.016a1.786,1.786,0,1,0,.523,1.264A1.8,1.8,0,0,0,221.039,387.016Z" transform="translate(-217.991 -386.495)"/></g></g></g></svg>