<svg xmlns="http://www.w3.org/2000/svg" width="72.327" height="78.484" viewBox="0 0 72.327 78.484"><g transform="translate(-1130.673 -341)"><path d="M0,26A26,26,0,0,1,25.2.012L25.2,0h.385c.138,0,.276,0,.414,0s.276,0,.414,0H52V25.783h0c0,.073,0,.144,0,.217A26,26,0,0,1,0,26Z" transform="translate(1203 393) rotate(180)" fill="#00d396"/><path d="M360.041,345.69a11.169,11.169,0,0,0-10.974,9.18H306.1a1.972,1.972,0,0,0-1.48,3.276L329.3,386.174a1.971,1.971,0,0,0,1.481.669h.326c.018,7.5.018,15.125,0,22.721h-7.69a1.973,1.973,0,0,0,0,3.945H342.73a1.973,1.973,0,1,0,0-3.945h-7.681c.018-7.6.018-15.22,0-22.721h.316a1.971,1.971,0,0,0,1.481-.669l17.422-19.789a11.146,11.146,0,0,0,5.771,1.609h0a11.152,11.152,0,1,0,0-22.3Zm-4.364,13.125-3.179,3.61,0,0,0,0-1.423,1.617H315.075l-4.608-5.234Zm-21.2,24.083h-2.8l-13.122-14.9H347.6Zm25.567-18.849h0a7.208,7.208,0,0,1-3.1-.7l4.581-5.2a1.973,1.973,0,0,0-1.481-3.276h-6.93a7.207,7.207,0,1,1,6.93,9.179Z" transform="translate(826.543 5.974)"/></g></svg>