<svg xmlns="http://www.w3.org/2000/svg" width="79.548" height="88.311" viewBox="0 0 79.548 88.311"><g transform="translate(-954.452 -341.005)"><path d="M0,26A26,26,0,0,1,25.2.012L25.2,0h.385c.138,0,.276,0,.414,0s.276,0,.414,0H52V25.783h0c0,.073,0,.144,0,.217A26,26,0,0,1,0,26Z" transform="translate(982 343)" fill="#00d396"/><g transform="translate(954.452 341.005)"><path d="M36.33,40.981,19.613,37.72a1.731,1.731,0,0,0-1.83.831A84.983,84.983,0,0,0,9.062,62.427a42.141,42.141,0,0,0-.792,8.915,31.626,31.626,0,0,0,.8,6.69q.215.93.5,1.842c1.426,4.554,3.876,7.665,6.994,8.951l-3.611,19.46-7.776-1.517a4.285,4.285,0,0,0-4.75,2.574,5.325,5.325,0,0,0-.268.976,7.691,7.691,0,0,0-.152.951,4.247,4.247,0,0,0,3.423,4.452l18.968,3.7a4.323,4.323,0,0,0,4.332-1.792,4.058,4.058,0,0,0,.554-1.184,7.414,7.414,0,0,0,.29-1.611,4.246,4.246,0,0,0-3.429-4.365l-7.792-1.521,3.612-19.466c3.184-.029,6.427-1.79,9.331-5.094.238-.27.465-.546.689-.827A33.1,33.1,0,0,0,35.214,73.8a43.385,43.385,0,0,0,1.6-5.953,84.98,84.98,0,0,0,.895-25.4A1.733,1.733,0,0,0,36.33,40.981ZM23.985,114.2a.918.918,0,0,1,.108.66,3,3,0,0,1-.145.639.786.786,0,0,1-.883.524L4.1,112.321a.791.791,0,0,1-.539-.4,1.225,1.225,0,0,1-.013-.857,1.16,1.16,0,0,1,.3-.707.792.792,0,0,1,.677-.191l18.968,3.7A.782.782,0,0,1,23.985,114.2ZM20.2,41.362l14.227,2.776a83.643,83.643,0,0,1-1,23.041c-.159.815-.344,1.616-.546,2.4H11.734a39.6,39.6,0,0,1,.728-6.493A83.841,83.841,0,0,1,20.2,41.362ZM30.326,76.545a25.834,25.834,0,0,1-3.214,5.07A11.857,11.857,0,0,1,21.4,85.81a5.542,5.542,0,0,1-2.905.02A7.3,7.3,0,0,1,14.381,82.3,19.466,19.466,0,0,1,12.057,75.2c-.107-.715-.185-1.435-.24-2.156H31.806A34.082,34.082,0,0,1,30.326,76.545Zm0,0" transform="translate(-0.001 -31.187)"/><path d="M168.591,106.284c.054,0,.107.007.16.007a1.733,1.733,0,0,0,1.723-1.575,84.27,84.27,0,0,0,.27-10.94,1.732,1.732,0,0,0-3.461.137,80.552,80.552,0,0,1-.258,10.488A1.732,1.732,0,0,0,168.591,106.284Zm0,0" transform="translate(-138.209 -76.225)"/><path d="M275.312,110.741a6.5,6.5,0,0,0-.567-1.85,4.129,4.129,0,0,0-1.075-1.274,4.264,4.264,0,0,0-3.458-.848l-7.785,1.519-3.8-19.469c6.676-2.775,9.943-13.832,7.493-26.391a85.006,85.006,0,0,0-8.72-23.875,1.733,1.733,0,0,0-1.83-.831l-16.718,3.262a1.733,1.733,0,0,0-1.383,1.459,85.006,85.006,0,0,0,.895,25.4C240.814,80.4,248,89.421,255.229,89.483l3.8,19.469-7.784,1.519a4.32,4.32,0,0,0-3.326,3.22,5.452,5.452,0,0,0,.227,2.894,4.247,4.247,0,0,0,4.846,2.839l18.968-3.7A4.285,4.285,0,0,0,275.312,110.741Zm-34.55-66.6,14.226-2.776a83.819,83.819,0,0,1,7.734,21.728c.088.452.167.9.239,1.352H241.288A85.165,85.165,0,0,1,240.762,44.139Zm31.031,67.853a.776.776,0,0,1-.5.33l-18.967,3.7a.8.8,0,0,1-.676-.191,1.178,1.178,0,0,1-.3-.71,1.332,1.332,0,0,1-.011-.8.789.789,0,0,1,.564-.451l18.967-3.7a.8.8,0,0,1,.883.524A1.553,1.553,0,0,1,271.793,111.992Zm-16.825-25.98a7.825,7.825,0,0,1-4.08-1.648,16.259,16.259,0,0,1-3.123-3.118,24.09,24.09,0,0,1-1.523-2.2,31.886,31.886,0,0,1-2.414-4.831,38.5,38.5,0,0,1-1.915-6.307H263.36a31.531,31.531,0,0,1-.65,9.456,20.577,20.577,0,0,1-.792,2.591c-1.215,3.177-3.04,5.238-5.173,5.862A5.285,5.285,0,0,1,254.969,86.011Zm0,0" transform="translate(-196.048 -31.188)"/><path d="M221.326,1.732a1.732,1.732,0,1,0-3.463,0V7.358a1.732,1.732,0,1,0,3.463,0Zm0,0" transform="translate(-180.286)"/><path d="M175.741,8.513a1.732,1.732,0,1,0,2.961-1.8L176.567,3.2a1.732,1.732,0,1,0-2.96,1.8Zm0,0" transform="translate(-143.455 -1.96)"/><path d="M252.82,9.094a1.73,1.73,0,0,0,2.379-.581L257.333,5a1.732,1.732,0,0,0-2.96-1.8l-2.134,3.514A1.731,1.731,0,0,0,252.82,9.094Zm0,0" transform="translate(-208.523 -1.959)"/><path d="M334.232,113.876q.988,2.709,1.776,5.486c.206.732.319,1.5,1.025,1.926a1.732,1.732,0,0,0,2.565-1.932c-.227-.9-.5-1.788-.769-2.674q-.423-1.375-.9-2.735c-.156-.449-.3-.912-.484-1.348a1.728,1.728,0,0,0-.606-.741,1.731,1.731,0,0,0-2.611,2.019Zm0,0" transform="translate(-276.497 -92.313)"/><path d="M164.806,195.7a1.739,1.739,0,1,1-1.739-1.739A1.739,1.739,0,0,1,164.806,195.7Zm0,0" transform="translate(-133.502 -160.503)"/><path d="M322.427,76.223a1.739,1.739,0,1,1-1.739-1.739A1.739,1.739,0,0,1,322.427,76.223Zm0,0" transform="translate(-263.936 -61.637)"/></g></g></svg>