<svg xmlns="http://www.w3.org/2000/svg" width="69.569" height="69.569" viewBox="0 0 69.569 69.569"><g transform="translate(-1133.523 -856.955)"><g transform="translate(1202.579 916.216) rotate(173)"><path d="M0,0" transform="translate(23.427 16.844)" fill="#00d396"/><path d="M26.051,0A26.051,26.051,0,1,1,0,26.051,26.051,26.051,0,0,1,26.051,0Z" transform="translate(52.102 52.102) rotate(180)" fill="#00d396"/><path d="M10.363,0H37.216V25.833L0,37.213Z" transform="translate(37.216 52.1) rotate(180)" fill="#00d396"/></g><g transform="translate(1133.523 856.955)"><g transform="translate(8.834 60.199)"><path d="M67.331,443.435a1.36,1.36,0,1,0,.4.962A1.368,1.368,0,0,0,67.331,443.435Z" transform="translate(-65.012 -443.038)"/></g><g transform="translate(40.856 12.172)"><path d="M317.751,101.593a25.7,25.7,0,0,0-15.345-11.96,1.359,1.359,0,0,0-.725,2.619,22.967,22.967,0,0,1,13.71,10.688,1.359,1.359,0,0,0,2.36-1.347Z" transform="translate(-300.684 -89.583)"/></g><g transform="translate(34.398 11.299)"><path d="M254.66,83.155h-.145a1.359,1.359,0,0,0,0,2.718h.138a1.359,1.359,0,0,0,.008-2.718Z" transform="translate(-253.156 -83.155)"/></g><g transform="translate(0)"><path d="M69.569,37.774a1.359,1.359,0,0,0-1.359-1.359H66.55a31.808,31.808,0,0,0-26-29.916V5.764a5.764,5.764,0,1,0-11.527,0V6.5a31.808,31.808,0,0,0-26,29.916H1.36A1.359,1.359,0,0,0,0,37.774,8.71,8.71,0,0,0,6.4,46.16L.768,48.889a1.359,1.359,0,1,0,1.185,2.446L8.8,48.018,16.382,63.67,9.534,66.987a1.359,1.359,0,1,0,1.185,2.446l8.071-3.909a1.359,1.359,0,0,0,.631-1.815l-.642-1.325,19.486,3.962a13.815,13.815,0,0,0,2.753.276,14.07,14.07,0,0,0,9.221-3.441L59.4,55.132a1.359,1.359,0,0,0-1.787-2.048l-9.159,8.049a11.327,11.327,0,0,1-9.646,2.55L17.289,59.308l-4.069-8.4,9.422-3.792a8.651,8.651,0,0,1,6.329-.059l9.71,3.7A1.974,1.974,0,0,1,37.422,54.5l-7.854-2.3A1.359,1.359,0,1,0,28.8,54.8L36.657,57.1a4.731,4.731,0,0,0,1.335.193,4.664,4.664,0,0,0,3.473-1.551l.478.03q.492.031.983.031a15.945,15.945,0,0,0,9.55-3.179l7.148-5.353a1.561,1.561,0,0,1,1.942.066,1.552,1.552,0,0,1,.008,2.345l-3.961,3.456A1.359,1.359,0,0,0,59.4,55.189l3.961-3.456a4.267,4.267,0,0,0,.575-5.821A8.709,8.709,0,0,0,69.569,37.774ZM31.739,5.764h0a3.046,3.046,0,1,1,6.092,0v.36q-1.509-.142-3.046-.144t-3.046.144ZM34.785,8.7A29.113,29.113,0,0,1,63.83,36.415H5.741A29.113,29.113,0,0,1,34.785,8.7ZM12.032,48.456,11.07,46.47h5.9Zm38.813,2a13.223,13.223,0,0,1-8.2,2.632,4.684,4.684,0,0,0-2.993-4.866L35.061,46.47h21.1Zm10.028-6.7H8.7a5.989,5.989,0,0,1-5.823-4.62H66.7A5.989,5.989,0,0,1,60.873,43.752Z" transform="translate(-0.001)"/></g></g></g></svg>