<svg xmlns="http://www.w3.org/2000/svg" width="79.277" height="88.219" viewBox="0 0 79.277 88.219"><g transform="translate(-955.873 -676.073)"><path d="M0,26.052A26.051,26.051,0,0,1,25.249.012l0-.009h.386c.138,0,.276,0,.415,0s.277,0,.415,0H52.1V25.834h0c0,.073,0,.145,0,.217a26.052,26.052,0,0,1-52.1,0Z" transform="matrix(-0.999, -0.035, 0.035, -0.999, 1024.466, 729.963)" fill="#00d396"/><g transform="translate(955.873 682.071)"><g transform="translate(0 49.789)"><path d="M199.89,354.182a8.913,8.913,0,0,0,1.982-5.569v-3.6a9.009,9.009,0,0,0-18.018,0v3.6a8.913,8.913,0,0,0,1.982,5.569,8.988,8.988,0,0,0-5.585,3.5,8.988,8.988,0,0,0-5.585-3.5,8.913,8.913,0,0,0,1.982-5.569v-3.6a9.009,9.009,0,0,0-18.018,0v3.6a8.913,8.913,0,0,0,1.982,5.569,8.988,8.988,0,0,0-5.585,3.5,8.988,8.988,0,0,0-5.585-3.5,8.913,8.913,0,0,0,1.982-5.569v-3.6a9.009,9.009,0,0,0-18.018,0v3.6a8.913,8.913,0,0,0,1.982,5.569A9.009,9.009,0,0,0,128,363.026v5.405h3.6v-5.405a5.405,5.405,0,0,1,5.405-5.405h10.811a5.405,5.405,0,0,1,5.405,5.405v5.405h3.6v-5.405a5.405,5.405,0,0,1,5.405-5.405h10.811a5.405,5.405,0,0,1,5.405,5.405v5.405h3.6v-5.405a5.405,5.405,0,0,1,5.405-5.405h10.811a5.405,5.405,0,0,1,5.405,5.405v5.405h3.6v-5.405A9.009,9.009,0,0,0,199.89,354.182Zm-52.071-5.569a5.405,5.405,0,1,1-10.811,0v-3.6a5.405,5.405,0,1,1,10.811,0Zm25.225,0a5.405,5.405,0,0,1-10.811,0v-3.6a5.405,5.405,0,0,1,10.811,0Zm25.225,0a5.405,5.405,0,0,1-10.811,0v-3.6a5.405,5.405,0,0,1,10.811,0Z" transform="translate(-128 -336)"/></g><g transform="translate(0.102)"><g transform="translate(0.025 -0.071)" fill="none" stroke="#000" stroke-width="3"><rect width="79" height="46" rx="2" stroke="none"/><rect x="1.5" y="1.5" width="76" height="43" rx="0.5" fill="none"/></g></g><g transform="translate(-4 2)"><path d="M5334.67,2429.107h8.116v8.125" transform="translate(-5280.257 -2416.763)" fill="none" stroke="#000" stroke-linecap="round" stroke-linejoin="round" stroke-width="3"/><path d="M5312.659,2440.906l8.6-7.093,9.924,7.093,14.065-11.8" transform="translate(-5284.147 -2415)" fill="none" stroke="#000" stroke-linecap="round" stroke-linejoin="round" stroke-width="3"/></g></g></g></svg>