<svg xmlns="http://www.w3.org/2000/svg" width="69.331" height="69.279" viewBox="0 0 69.331 69.279"><g transform="translate(-1297 -683.593)"><g transform="translate(1297.04 694.252)"><path d="M0,26A26,26,0,0,1,25.2.012L25.2,0h.36q.22,0,.441,0t.441,0H52V25.786h0c0,.072,0,.143,0,.215A26,26,0,0,1,0,26Z" transform="translate(51.96 51.748) rotate(180)" fill="#00d396"/></g><g transform="translate(1297.052 683.593)"><path d="M34.639,0A34.639,34.639,0,1,0,69.279,34.639,34.679,34.679,0,0,0,34.639,0Zm0,66.573A31.933,31.933,0,1,1,66.573,34.639,31.969,31.969,0,0,1,34.639,66.573Z"/><path d="M83.062,56A26.943,26.943,0,0,0,61.9,66.192a1.353,1.353,0,1,0,2.115,1.688,24.356,24.356,0,1,1-5.31,15.182,24.548,24.548,0,0,1,.473-4.8,1.353,1.353,0,0,0-2.654-.53A27.065,27.065,0,1,0,83.062,56Z" transform="translate(-48.423 -48.423)"/><path d="M143.54,129.844a1.353,1.353,0,0,0-1.353,1.353v9.472a6.759,6.759,0,0,0,2.706,5.409v15.2a4.059,4.059,0,1,0,8.119,0v-15.2a6.759,6.759,0,0,0,2.706-5.409V131.2a1.353,1.353,0,1,0-2.706,0v6.766h-2.706V131.2a1.353,1.353,0,1,0-2.706,0v6.766h-2.706V131.2A1.353,1.353,0,0,0,143.54,129.844Zm6.766,31.434a1.353,1.353,0,0,1-2.706,0V147.3a6.794,6.794,0,0,0,2.706,0Zm-1.353-16.55a4.064,4.064,0,0,1-4.059-4.059h8.119A4.064,4.064,0,0,1,148.953,144.728Z" transform="translate(-122.948 -112.275)"/><path d="M271.379,156.691a4.064,4.064,0,0,0,4.059-4.059V136.418a6.8,6.8,0,0,0,3.383-6.1,13.465,13.465,0,0,0-1.98-6.662c-1.493-2.454-3.433-3.806-5.462-3.806s-3.969,1.352-5.462,3.806a13.464,13.464,0,0,0-1.98,6.662,6.8,6.8,0,0,0,3.383,6.1v16.215A4.064,4.064,0,0,0,271.379,156.691Zm1.353-4.059a1.353,1.353,0,1,1-2.706,0v-15.3a9.215,9.215,0,0,0,2.706,0Zm-1.353-30.081c1.033,0,2.181.913,3.15,2.506a10.808,10.808,0,0,1,1.586,5.255c0,3.256-2.446,4.416-4.736,4.416s-4.736-1.16-4.736-4.416S269.03,122.551,271.379,122.551Z" transform="translate(-228.224 -103.629)"/><path d="M75.051,168.508h0a1.353,1.353,0,1,0-1.354-1.353A1.353,1.353,0,0,0,75.052,168.508Z" transform="translate(-63.726 -143.367)"/></g></g></svg>