<svg xmlns="http://www.w3.org/2000/svg" width="72.324" height="79.76" viewBox="0 0 72.324 79.76"><g transform="translate(-1297.052 -509.391)"><g transform="translate(1261.966 492.492)"><path d="M10.363,0H37.216V25.834L0,37.214Z" transform="translate(62.765 16.9)" fill="#48dbaf"/><path d="M26.051,0A26.051,26.051,0,1,1,0,26.051,26.051,26.051,0,0,1,26.051,0Z" transform="translate(47.879 16.898)" fill="#48dbaf"/></g><g transform="translate(1358.794 577.594)"><circle cx="1.456" cy="1.456" r="1.456"/></g><g transform="translate(1303.353 577.594)"><circle cx="1.456" cy="1.456" r="1.456"/></g><g transform="translate(1297.052 514.583)"><path d="M78.568,71.654H66.061L65.984,35.86a1.457,1.457,0,0,0-1.457-1.453h0a1.457,1.457,0,0,0-1.453,1.46l.076,35.788H58.917l-.037-15.925a1.457,1.457,0,0,0-1.457-1.453h0a1.456,1.456,0,0,0-1.453,1.46L56,71.654H52.467V52.377a7.991,7.991,0,0,0,7.365-7.867V30.394a15.811,15.811,0,0,0-1.387-6.477,12.058,12.058,0,0,1,7.614,3.352,11.291,11.291,0,0,1,3.506,8.152l.027,8.289a1.457,1.457,0,0,0,1.457,1.452h0A1.457,1.457,0,0,0,72.5,43.7l-.027-8.288a14.18,14.18,0,0,0-4.4-10.239,14.888,14.888,0,0,0-5.621-3.414A7.7,7.7,0,0,0,57.153,8.473h-.017a7.732,7.732,0,0,0-3.554.875,1.457,1.457,0,0,0,1.351,2.581,4.74,4.74,0,0,1,2.209-.543,4.794,4.794,0,0,1,.021,9.588,1.451,1.451,0,0,0-.185.013l-.233.01a16.576,16.576,0,0,0-8.424-6.03,8.545,8.545,0,1,0-10.992.223,16.561,16.561,0,0,0-7.761,5.8c-.231-.01-.461-.016-.69-.016-.109,0-.218,0-.326,0-.027,0-.053,0-.08,0a4.794,4.794,0,1,1,2.286-9.009A1.457,1.457,0,1,0,32.15,9.4a7.7,7.7,0,0,0-8.738,12.581A14.508,14.508,0,0,0,14,35.445v8.261a1.457,1.457,0,1,0,2.913,0V35.445A11.739,11.739,0,0,1,27.858,23.931a15.811,15.811,0,0,0-1.381,6.463V44.51a8,8,0,0,0,7.61,7.885V71.654H30.119V55.731a1.457,1.457,0,1,0-2.913,0V71.654H23.625V35.878a1.457,1.457,0,1,0-2.913,0V71.654H9.157a1.457,1.457,0,0,0,0,2.913H78.568a1.457,1.457,0,1,0,0-2.913ZM37.062,8.545a5.632,5.632,0,1,1,5.632,5.632A5.638,5.638,0,0,1,37.062,8.545ZM51.01,29.429a1.457,1.457,0,0,0-1.457,1.457V71.654H44.365V51.389a1.457,1.457,0,1,0-2.913,0V71.654H37V30.885a1.457,1.457,0,1,0-2.913,0V49.475a5.075,5.075,0,0,1-4.7-4.965V30.394a12.937,12.937,0,0,1,2.12-7.1,14.024,14.024,0,0,1,23.3.016,12.938,12.938,0,0,1,2.11,7.08V44.51a5.063,5.063,0,0,1-4.451,4.936V30.885A1.457,1.457,0,0,0,51.01,29.429Z" transform="translate(-7.7)"/></g></g></svg>