<svg xmlns="http://www.w3.org/2000/svg" width="66.234" height="76.429" viewBox="0 0 66.234 76.429"><g transform="translate(-1303.53 -855.126)"><path d="M26.051,0A26.051,26.051,0,1,1,0,26.051,26.051,26.051,0,0,1,26.051,0Z" transform="translate(1355.867 917.36) rotate(180)" fill="#00d396"/><path d="M10.363,0H37.216V25.833L0,37.213Z" transform="translate(1340.98 917.357) rotate(180)" fill="#00d396"/><g transform="translate(1303.53 855.126)"><path d="M65.723,219.922a1.274,1.274,0,0,0,.367-2.494c-2.631-.789-5.489-3.678-7.841-7.922a1.274,1.274,0,0,0-2.229,1.234c2.675,4.821,6.076,8.152,9.336,9.128A1.263,1.263,0,0,0,65.723,219.922Zm0,0" transform="translate(-46.969 -175.597)"/><path d="M173.176,57.048a14.049,14.049,0,0,1,1.208,5.635,1.274,1.274,0,0,0,2.547,0,16.591,16.591,0,0,0-1.419-6.649,17.245,17.245,0,0,0-5.459-6.98,1.274,1.274,0,0,0-1.529,2.038A14.683,14.683,0,0,1,173.176,57.048Zm0,0" transform="translate(-141.268 -41.03)"/><path d="M121.289,34.547a10.564,10.564,0,0,1,3.411.58,1.274,1.274,0,0,0,.82-2.412A13.119,13.119,0,0,0,121.289,32a1.274,1.274,0,0,0,0,2.547Zm0,0" transform="translate(-100.91 -26.905)"/><path d="M226.09,281.452c-2.631-.79-5.489-3.679-7.841-7.923a1.274,1.274,0,1,0-2.229,1.235c2.675,4.821,6.076,8.152,9.336,9.127a1.273,1.273,0,1,0,.734-2.439Zm0,0" transform="translate(-181.495 -229.427)"/><path d="M330.054,113.054a1.274,1.274,0,0,0-1.529,2.038,14.691,14.691,0,0,1,4.648,5.948,14.048,14.048,0,0,1,1.211,5.643,1.274,1.274,0,0,0,2.547,0,16.591,16.591,0,0,0-1.419-6.649A17.245,17.245,0,0,0,330.054,113.054Zm0,0" transform="translate(-275.793 -94.84)"/><path d="M285.521,96.715A13.118,13.118,0,0,0,281.289,96a1.274,1.274,0,0,0,0,2.547,10.564,10.564,0,0,1,3.411.58,1.274,1.274,0,1,0,.82-2.412Zm0,0" transform="translate(-235.435 -80.715)"/><path d="M45.852,10.19h-.021a18.289,18.289,0,0,0-7.448,1.623A20.463,20.463,0,0,0,20.4,0C9.539,0,.016,10.118.016,21.653c0,9.977,6.848,23.538,15.844,27.095l-.541,3.266A1.274,1.274,0,0,0,16.574,53.5h2.054l-.807,2.42a8.861,8.861,0,0,0,1.046,7.77l.946,1.419a6.334,6.334,0,0,1,.744,5.548l-1.365,4.1a1.275,1.275,0,1,0,2.42.8l1.358-4.1a8.859,8.859,0,0,0-1.045-7.77l-.947-1.419a6.328,6.328,0,0,1-.745-5.548l1.08-3.223h2.9a1.274,1.274,0,0,0,1.256-1.483l-.542-3.263a16.538,16.538,0,0,0,4.3-2.539c2.675,5.369,6.9,10.68,12.1,12.744L40.793,62.2a1.274,1.274,0,0,0,1.256,1.483H44.1l-.807,2.42a8.861,8.861,0,0,0,1.046,7.77l.945,1.416c.1.153.2.311.284.47a1.273,1.273,0,0,0,1.119.664,1.258,1.258,0,0,0,.608-.157,1.273,1.273,0,0,0,.509-1.727c-.127-.224-.254-.445-.4-.661l-.946-1.419a6.327,6.327,0,0,1-.746-5.547l1.072-3.229h2.9A1.274,1.274,0,0,0,50.947,62.2l-.535-3.225c3.648-1.424,7.119-4.544,10.063-9.138A35.679,35.679,0,0,0,66.249,31.8C66.223,20.283,56.7,10.19,45.852,10.19ZM2.563,21.653C2.563,11.475,10.9,2.547,20.4,2.547,27.234,2.547,33.594,7.04,36.6,14a19.111,19.111,0,0,1,1.626,7.657,22.228,22.228,0,0,1-.185,2.8,28.673,28.673,0,0,1-.637,3.3,33.337,33.337,0,0,1-8.615,15.479,14.4,14.4,0,0,1-5.661,3.477,9.219,9.219,0,0,1-4.109.311,9.563,9.563,0,0,1-1.369-.312C9.295,44.2,2.563,30.951,2.563,21.653Zm15.514,29.3.242-1.461c.075.014.149.018.224.03s.186.024.279.037a11.485,11.485,0,0,0,1.553.12h.04a11.574,11.574,0,0,0,1.552-.118c.093-.013.187-.022.28-.037s.149-.016.225-.03l.242,1.46Zm30.111,10.19H43.552l.242-1.461c.144.026.288.038.43.058.12.017.238.034.358.049a12.031,12.031,0,0,0,1.287.08H45.9a11.78,11.78,0,0,0,2.037-.183ZM58.334,48.465C55.46,52.946,52,55.9,48.536,56.918a9.43,9.43,0,0,1-1.221.277l-.171.024a9.1,9.1,0,0,1-2.56,0c-.107-.015-.21-.04-.316-.06a9.616,9.616,0,0,1-1.033-.234c-5.17-1.48-9.447-7.023-12.031-12.482.076-.076.149-.163.223-.241.159-.167.316-.338.473-.509q.279-.309.553-.628c.155-.182.307-.367.458-.555q.268-.328.527-.67.224-.295.443-.6.256-.347.5-.7c.144-.209.285-.419.425-.637.159-.242.315-.488.469-.736q.2-.328.4-.664c.149-.255.294-.509.437-.764.127-.231.254-.46.382-.692.139-.255.272-.522.4-.784.12-.237.238-.473.353-.711.127-.269.254-.539.374-.809.108-.241.218-.48.322-.722.117-.274.228-.55.34-.827.1-.243.2-.485.289-.729.106-.28.2-.56.3-.841.086-.243.174-.487.255-.731.094-.285.179-.569.266-.856.073-.241.149-.481.218-.722.081-.289.153-.578.226-.869.06-.236.127-.471.178-.707.069-.3.127-.59.186-.884.046-.227.1-.455.137-.68.055-.308.1-.611.142-.915.03-.209.068-.419.094-.627.042-.336.069-.667.1-1,.015-.171.037-.344.049-.51.032-.5.049-.988.049-1.471,0-.692-.04-1.382-.108-2.069-.023-.227-.063-.452-.093-.678-.061-.461-.127-.92-.218-1.378-.052-.264-.119-.526-.181-.789-.1-.42-.209-.838-.334-1.254-.081-.268-.169-.535-.261-.8-.065-.19-.114-.382-.185-.569a15.746,15.746,0,0,1,6.434-1.377h.018c9.488,0,17.832,8.907,17.851,19.07A33.014,33.014,0,0,1,58.334,48.465Zm0,0" transform="translate(-0.016)"/></g></g></svg>