<svg xmlns="http://www.w3.org/2000/svg" width="72.897" height="76.327" viewBox="0 0 72.897 76.327"><g transform="translate(-1469.02 -344.583)"><path d="M0,26.052A26.051,26.051,0,0,1,25.249.012l0-.009h.386c.138,0,.276,0,.415,0s.277,0,.415,0H52.1V25.834h0c0,.073,0,.145,0,.217a26.052,26.052,0,0,1-52.1,0Z" transform="translate(1489.845 346.946) rotate(2)" fill="#00d396"/><g transform="translate(1469.02 344.583)"><g transform="translate(0 0)"><path d="M51.56,42.017a39.92,39.92,0,0,1,8.49-2.878,1.491,1.491,0,1,0-.617-2.917,43.335,43.335,0,0,0-9.8,3.409c-1.834-2.187-3.934-4.475-6.2-6.74-2.407-2.407-4.839-4.629-7.15-6.541a33.682,33.682,0,0,0,4.866-8.457,44.189,44.189,0,0,0,2.9-16.4,1.491,1.491,0,1,0-2.982,0c0,9.328-2.392,17.048-7.115,23.005-.891-.68-1.756-1.3-2.581-1.861-4.418-2.98-7.05-3.678-8.52-2.26l-.031.029,0,0,0,0a2.453,2.453,0,0,0-.7,1.379l-22,52.47A1.491,1.491,0,0,0,2.067,76.21l0,0,52.466-22a2.449,2.449,0,0,0,1.277-.605c.026-.022.05-.045.075-.068l.029-.027,0,0,.03-.032c1.418-1.471.719-4.1-2.26-8.52C53.062,44.017,52.346,43.034,51.56,42.017ZM11.824,65.706a10.029,10.029,0,0,1-1.336,3.74L4.275,72.051,10.585,57A16.563,16.563,0,0,1,11.824,65.706ZM21,60.662a9.552,9.552,0,0,1-2.649,5.488L14.42,67.8c.873-3.109,1.1-8.044-2.272-14.521l4.468-10.653C21.251,51.41,21.6,57.233,21,60.662Zm5.318,2.147L23.1,64.156a15.05,15.05,0,0,0,.772-2.653c1.193-6.09-.755-13.62-5.786-22.389L19.7,35.267a25.307,25.307,0,0,1,3.321,5.081,1.491,1.491,0,1,0,2.739-1.177,28.288,28.288,0,0,0-4.786-6.941l2.465-5.877c.432.792.966,1.659,1.608,2.61q.662.982,1.446,2.031a28.038,28.038,0,0,1,3.987,20.943A30.273,30.273,0,0,1,26.315,62.808ZM37.8,57.992l-7.077,2.968a37.577,37.577,0,0,0,2.684-8.469,32.414,32.414,0,0,0-.284-13.705Q34.184,39.9,35.3,41.024c2.23,2.23,4.481,4.3,6.637,6.112C41.725,54.174,38.5,57.381,37.8,57.992Zm5.139-2.155A20.138,20.138,0,0,0,44.757,49.4c.9.687,1.772,1.318,2.605,1.88.951.642,1.818,1.176,2.61,1.608Zm5.243-7.614a88.333,88.333,0,0,1-10.773-9.308A88.318,88.318,0,0,1,28.1,28.142c-2.22-3.134-2.819-4.734-2.976-5.428.693.158,2.294.756,5.428,2.976.465.329.942.681,1.429,1.05-.1.108-.208.216-.314.323a1.491,1.491,0,1,0,2.108,2.108q.281-.281.554-.569c2.261,1.869,4.652,4.052,7,6.4,2.015,2.015,3.91,4.065,5.591,6.038q-.4.224-.807.457A1.491,1.491,0,1,0,47.6,44.076c.414-.239.828-.469,1.242-.693.648.823,1.249,1.622,1.792,2.389,2.221,3.134,2.819,4.734,2.976,5.428C52.918,51.042,51.318,50.443,48.184,48.223Z" transform="translate(0 0.001)"/><path d="M164.613,283.513a1.5,1.5,0,1,0,.051.128C164.649,283.6,164.63,283.552,164.613,283.513Z" transform="translate(-137.647 -240.499)"/><path d="M.644,8.152A2.806,2.806,0,0,0,2.2,8.588a2.806,2.806,0,0,0,1.554-.437C8.664,4.821,16.621,3.294,22.43,2.976c1.21-.066,2.112-.785,2.014-1.606S23.289-.059,22.077,0C15.488.365,6.4,2.141.644,6.044A1.185,1.185,0,0,0,.644,8.152Z" transform="matrix(0.951, -0.309, 0.309, 0.951, 43.847, 21.943)"/></g></g></g></svg>