<svg xmlns="http://www.w3.org/2000/svg" width="100" height="86.317" viewBox="0 0 100 86.317"><g transform="translate(-1286 -343)"><path d="M0,26A26,26,0,0,1,25.2.012L25.2,0h.385c.138,0,.276,0,.414,0s.276,0,.414,0H52V25.783h0c0,.073,0,.144,0,.217A26,26,0,0,1,0,26Z" transform="translate(1334 343)" fill="#00d296"/><g transform="translate(1312 349)" fill="none" stroke="#000" stroke-width="2.5"><rect width="46" height="76" rx="1" stroke="none"/><rect x="1.25" y="1.25" width="43.5" height="73.5" rx="0.25" fill="none"/></g><g transform="translate(1286 373)" fill="none" stroke="#000" stroke-width="2.5"><rect width="29" height="55" rx="1" stroke="none"/><rect x="1.25" y="1.25" width="26.5" height="52.5" rx="0.25" fill="none"/></g><g transform="translate(1355 373)" fill="none" stroke="#000" stroke-width="2.5"><rect width="29" height="55" rx="1" stroke="none"/><rect x="1.25" y="1.25" width="26.5" height="52.5" rx="0.25" fill="none"/></g><g transform="translate(1321 359)" fill="none" stroke="#000" stroke-width="2"><rect width="11" height="11" rx="1" stroke="none"/><rect x="1" y="1" width="9" height="9" fill="none"/></g><g transform="translate(1321 373)" fill="none" stroke="#000" stroke-width="2"><rect width="11" height="11" rx="1" stroke="none"/><rect x="1" y="1" width="9" height="9" fill="none"/></g><g transform="translate(1321 387)" fill="none" stroke="#000" stroke-width="2"><rect width="11" height="10" rx="1" stroke="none"/><rect x="1" y="1" width="9" height="8" fill="none"/></g><g transform="translate(1296 381)" fill="none" stroke="#000" stroke-width="2"><rect width="10" height="10" rx="1" stroke="none"/><rect x="1" y="1" width="8" height="8" fill="none"/></g><g transform="translate(1296 397)" fill="none" stroke="#000" stroke-width="2"><rect width="10" height="11" rx="1" stroke="none"/><rect x="1" y="1" width="8" height="9" fill="none"/></g><g transform="translate(1337 359)" fill="none" stroke="#000" stroke-width="2"><rect width="10" height="11" rx="1" stroke="none"/><rect x="1" y="1" width="8" height="9" fill="none"/></g><g transform="translate(1337 373)" fill="none" stroke="#000" stroke-width="2"><rect width="10" height="11" rx="1" stroke="none"/><rect x="1" y="1" width="8" height="9" fill="none"/></g><g transform="translate(1337 387)" fill="none" stroke="#000" stroke-width="2"><rect width="10" height="10" rx="1" stroke="none"/><rect x="1" y="1" width="8" height="8" fill="none"/></g><g transform="translate(1364 381)" fill="none" stroke="#000" stroke-width="2"><rect width="11" height="10" rx="1" stroke="none"/><rect x="1" y="1" width="9" height="8" fill="none"/></g><g transform="translate(1364 397)" fill="none" stroke="#000" stroke-width="2"><rect width="11" height="11" rx="1" stroke="none"/><rect x="1" y="1" width="9" height="9" fill="none"/></g><g transform="translate(1293.906 396.885)"><g transform="translate(0 0)"><path d="M5567.86,2212.912l-3.868,7.667,2.444,7.833-4.295,3.121-1.774,1.986-3.913-1.986-3.888-3.121.9-10.406-2.066-5.093-5.413-1.212-5.538,3.186-1.329,8.284,1.329,6.455-2.671,1.909-3.188,4.293v6.183h75.5l-1.955-10.476h-7.773l2.9-5.966V2218l-2.9-5.093h-6.672L5590.1,2218v11.618l-5.307,3.895-7.269-3.895v-14.738l-3.876-1.973Z" transform="translate(-5532.069 -2210.178)" fill="#fff"/><path d="M199.89,354.182a8.913,8.913,0,0,0,1.982-5.569v-3.6a9.009,9.009,0,0,0-18.018,0v3.6a8.913,8.913,0,0,0,1.982,5.569,8.988,8.988,0,0,0-5.585,3.5,8.988,8.988,0,0,0-5.585-3.5,8.913,8.913,0,0,0,1.982-5.569v-3.6a9.009,9.009,0,0,0-18.018,0v3.6a8.913,8.913,0,0,0,1.982,5.569,8.988,8.988,0,0,0-5.585,3.5,8.988,8.988,0,0,0-5.585-3.5,8.913,8.913,0,0,0,1.982-5.569v-3.6a9.009,9.009,0,0,0-18.018,0v3.6a8.913,8.913,0,0,0,1.982,5.569A9.009,9.009,0,0,0,128,363.026v5.405h3.6v-5.405a5.405,5.405,0,0,1,5.405-5.405h10.811a5.405,5.405,0,0,1,5.405,5.405v5.405h3.6v-5.405a5.405,5.405,0,0,1,5.405-5.405h10.811a5.405,5.405,0,0,1,5.405,5.405v5.405h3.6v-5.405a5.405,5.405,0,0,1,5.405-5.405h10.811a5.405,5.405,0,0,1,5.405,5.405v5.405h3.6v-5.405A9.009,9.009,0,0,0,199.89,354.182Zm-52.071-5.569a5.405,5.405,0,1,1-10.811,0v-3.6a5.405,5.405,0,1,1,10.811,0Zm25.225,0a5.405,5.405,0,0,1-10.811,0v-3.6a5.405,5.405,0,0,1,10.811,0Zm25.225,0a5.405,5.405,0,0,1-10.811,0v-3.6a5.405,5.405,0,0,1,10.811,0Z" transform="translate(-128 -336)"/></g></g></g></svg>