<svg xmlns="http://www.w3.org/2000/svg" width="21.496" height="38.179" viewBox="0 0 21.496 38.179"><path d="M72.968,20.281C72.968,9.335,63.437.673,63.031.31a1.215,1.215,0,0,0-1.622,0C61,.673,51.472,9.335,51.472,20.281a10.834,10.834,0,0,0,3.133,7.4A10.7,10.7,0,0,0,61,30.952v6.011a1.215,1.215,0,1,0,2.431,0V30.952a10.7,10.7,0,0,0,6.4-3.268A10.834,10.834,0,0,0,72.968,20.281ZM56.015,11.7,61,16.688v5.079l-6.389-6.39A23.455,23.455,0,0,1,56.015,11.7Zm7.421,10.071V16.689l4.99-4.99a23.459,23.459,0,0,1,1.4,3.681Zm3.8-12.31c-.019.017-.039.034-.058.052l-3.74,3.74V4.236A35.211,35.211,0,0,1,67.233,9.459ZM61,4.236V13.25L57.266,9.511c-.019-.019-.039-.036-.059-.053A35.222,35.222,0,0,1,61,4.236ZM53.9,20.281a16.74,16.74,0,0,1,.13-2.048L61.005,25.2V28.5A8.742,8.742,0,0,1,53.9,20.281ZM63.436,28.5V25.206l6.971-6.971a16.694,16.694,0,0,1,.13,2.045A8.742,8.742,0,0,1,63.436,28.5Z" transform="translate(-51.472 0)" fill="#20af81"/></svg>