<svg xmlns="http://www.w3.org/2000/svg" width="22.057" height="39.175" viewBox="0 0 22.057 39.175"><path d="M73.529,20.81c0-11.232-9.78-20.119-10.2-20.492a1.247,1.247,0,0,0-1.664,0c-.416.373-10.2,9.26-10.2,20.492a11.117,11.117,0,0,0,3.215,7.6,10.976,10.976,0,0,0,6.567,3.354v6.168a1.247,1.247,0,0,0,2.494,0V31.76a10.975,10.975,0,0,0,6.566-3.354A11.117,11.117,0,0,0,73.529,20.81ZM56.133,12l5.12,5.121v5.211L54.7,15.778A24.068,24.068,0,0,1,56.133,12Zm7.614,10.333V17.125L68.868,12A24.072,24.072,0,0,1,70.3,15.781Zm3.9-12.631c-.02.018-.04.035-.059.054L63.748,13.6V4.346A36.131,36.131,0,0,1,67.644,9.706ZM61.254,4.346V13.6L57.417,9.759c-.02-.019-.04-.037-.061-.055A36.14,36.14,0,0,1,61.254,4.346ZM53.966,20.81a17.18,17.18,0,0,1,.134-2.1l7.154,7.154v3.38A8.97,8.97,0,0,1,53.966,20.81Zm9.782,8.432V25.864L70.9,18.711a17.128,17.128,0,0,1,.134,2.1A8.97,8.97,0,0,1,63.748,29.243Z" transform="translate(-51.472 0)" fill="#f90136"/></svg>