<svg xmlns="http://www.w3.org/2000/svg" width="22.532" height="40.02" viewBox="0 0 22.532 40.02"><path d="M74,21.259C74,9.785,64.014.706,63.588.325a1.274,1.274,0,0,0-1.7,0c-.425.381-10.417,9.46-10.417,20.934a11.357,11.357,0,0,0,3.284,7.76,11.212,11.212,0,0,0,6.708,3.426v6.3a1.274,1.274,0,0,0,2.548,0v-6.3a11.212,11.212,0,0,0,6.708-3.426A11.357,11.357,0,0,0,74,21.259Zm-17.77-9,5.231,5.231v5.324l-6.7-6.7A24.587,24.587,0,0,1,56.234,12.262Zm7.779,10.556V17.494l5.231-5.231a24.588,24.588,0,0,1,1.467,3.859Zm3.981-12.9c-.02.018-.041.035-.06.055l-3.92,3.921V4.44A36.907,36.907,0,0,1,67.993,9.915ZM61.465,4.44v9.449L57.546,9.97c-.02-.02-.041-.038-.062-.056A36.922,36.922,0,0,1,61.465,4.44ZM54.02,21.259a17.548,17.548,0,0,1,.137-2.147l7.308,7.308v3.453A9.164,9.164,0,0,1,54.02,21.259Zm9.993,8.614V26.422l7.307-7.307a17.5,17.5,0,0,1,.137,2.144A9.163,9.163,0,0,1,64.013,29.873Z" transform="translate(-51.472 0)" fill="#f0532a"/></svg>