<svg xmlns="http://www.w3.org/2000/svg" width="201.345" height="186.687" viewBox="0 0 201.345 186.687"><g transform="translate(-743 -60.447)"><g transform="matrix(-0.766, -0.643, 0.643, -0.766, 1385.973, 1391.98)"><path d="M1259.1,625.647v.007c-.283.618-.579,1.23-.895,1.836a67.266,67.266,0,0,1-12.8,17.335c-.388.388-.776.763-1.171,1.132-9.145,8.618-20.328,14.638-31.2,16.756-.553.105-1.105.2-1.651.283-1.1.178-2.184.309-3.27.4a56.924,56.924,0,0,1-14.532-.743.084.084,0,0,1-.04-.007c-.395-.072-.789-.138-1.191-.224h-.007c-32.256-6.289-65.031-37.407-58.1-68.15,2.276-10.1,9.368-20.572,19.243-29.361.434-.388.882-.776,1.329-1.151a88.283,88.283,0,0,1,13.96-9.756c.368-.211.743-.421,1.118-.625a83.7,83.7,0,0,1,17.559-7.2c.632-.178,1.263-.349,1.895-.507a65.928,65.928,0,0,1,21.875-1.908q.779.069,1.559.158a54.069,54.069,0,0,1,13.822,3.467c.454.178.908.368,1.355.559a57.356,57.356,0,0,1,21.493,16.486q1.9,2.3,3.539,4.605c.428.6.842,1.2,1.237,1.8C1267.122,590.155,1266.622,609.595,1259.1,625.647Z" fill="#099f82"/><g transform="translate(1153.487 543.761)"><path d="M1255.905,655.344c-.388.388-.776.763-1.171,1.132-4.013-8.375-9.408-16.092-16.381-19.184-5.6-2.487-11.75-1.717-18.276,2.316-19.118,11.809-33.894,18.46-43.841,12.519-9.506-5.677-13.237-22.94-11.434-52.768a113.843,113.843,0,0,0-.822-23.927c.434-.388.882-.776,1.329-1.151a113.193,113.193,0,0,1,.974,25.17c-1.763,29.21,1.737,46.025,10.717,51.4,9.848,5.895,26.157-2.533,42.3-12.513,6.967-4.3,13.585-5.118,19.664-2.4C1246.228,639.16,1251.787,646.91,1255.905,655.344Z" transform="translate(-1163.98 -554.281)" fill="#b1e0cf" opacity="0.62" style="isolation:isolate"/><path d="M1243.706,722.64c-.553.105-1.105.2-1.651.283A10.778,10.778,0,0,0,1240,721.41c-3.849-2.171-8.769-1.737-14.625,1.276l-.079.039h-.007c-.342-.046-.684-.092-1.033-.145a.084.084,0,0,1-.04-.007c-.421-.059-.842-.125-1.263-.191.02-.013.046-.02.066-.033h.007c.566-.283,1.151-.566,1.73-.868,6.289-3.237,11.638-3.651,15.914-1.243A13.2,13.2,0,0,1,1243.706,722.64Z" transform="translate(-1184.155 -603.689)" fill="#b1e0cf" opacity="0.62" style="isolation:isolate"/><path d="M1320.238,638.91v.007c-.283.618-.579,1.23-.895,1.836q-5.654-11.921-6.987-29.091a100.194,100.194,0,0,1,1.77-29.361c.428.6.842,1.2,1.237,1.8a99.776,99.776,0,0,0-1.434,27.44C1314.758,622.214,1316.87,631.358,1320.238,638.91Z" transform="translate(-1214.622 -557.024)" fill="#b1e0cf" opacity="0.62" style="isolation:isolate"/><path d="M1246.58,557.317c-.566,13.381-6.289,22.388-16.565,26.131-.415.145-.816.283-1.237.421-12.98,4.053-27.407-11.276-41.558-27.861.368-.211.743-.421,1.118-.625,13.835,16.2,27.881,31.091,40.065,27.282,16.184-5.059,17.71-21.717,16.644-33.276.454.178.908.368,1.355.559A58.636,58.636,0,0,1,1246.58,557.317Z" transform="translate(-1171.931 -545.765)" fill="#b1e0cf" opacity="0.62" style="isolation:isolate"/><path d="M1240.938,544.038a16.034,16.034,0,0,1-6.2,4.145c-5.23,1.928-11.625,1.3-19.125-1.888.632-.178,1.263-.349,1.895-.507,6.579,2.546,12.2,2.974,16.815,1.27a15.217,15.217,0,0,0,5.059-3.178Q1240.159,543.949,1240.938,544.038Z" transform="translate(-1181.644 -543.88)" fill="#b1e0cf" opacity="0.62" style="isolation:isolate"/></g></g><g transform="translate(-31 -6)"><path d="M-1035-1121.836c-16.667,21.431-52.941,24.293-71.663,5.035s-19.893-60.637-3.226-82.068,51.172-22.914,69.895-3.656S-1018.336-1143.267-1035-1121.836Z" transform="translate(1935.602 1322.803)" fill="none" stroke="#00d295" stroke-width="7.75"/><path d="M0-1141.6H136.086v-158.849H0Z" transform="translate(774 1366.894)" fill="none"/><text transform="translate(852 178)" fill="#fff" font-size="52" font-family="Gilroy-Bold" font-weight="700"><tspan x="0" y="0">1</tspan></text></g></g></svg>