<svg xmlns="http://www.w3.org/2000/svg" width="409.918" height="547.977" viewBox="0 0 409.918 547.977"><g transform="translate(622.953 -883)"><path d="M97.783,5.527c-44.311,15.22-55.2,11.976-53.8,110.482s-99.65,212.778,0,201.471,101.092,29.282,170.969,0S320.869,278.209,315.984,233.4s47.922-126.582,0-165.768c-1.012-.83-67.361-33.338-66.7-34.133C199.174,8.779,142.09-9.693,97.783,5.527Z" transform="matrix(0.985, 0.174, -0.174, 0.985, -557.838, 1042.167)" fill="#00d396"/><path d="M18311.91,2377.59s-63.9-141.453-270.84-151.021" transform="translate(-18585.188 -1073.604)" fill="none" stroke="#fff" stroke-width="1" opacity="0.395"/><path d="M18323.293,2377.59s-66.594-141.453-282.223-151.021" transform="translate(-18581.148 -1113.01)" fill="none" stroke="#fff" stroke-width="1" opacity="0.395"/><path d="M18311.91,2377.59s-63.9-141.453-270.84-151.021" transform="translate(-18609.174 -1030.771)" fill="none" stroke="#fff" stroke-width="1" opacity="0.395"/><path d="M18311.91,2377.59s-63.9-141.453-270.84-151.021" transform="translate(-18634.873 -987.938)" fill="none" stroke="#fff" stroke-width="1" opacity="0.395"/><path d="M18311.91,2377.59s-63.9-141.453-270.84-151.021" transform="translate(-18664 -946.818)" fill="none" stroke="#fff" stroke-width="1" opacity="0.395"/><g transform="translate(-585.357 883)"><path d="M102.8,213.482c32.7,3.946,30.724-17.476,32.979-21.14h0l3.382-8.456c3.382-7.61,7.329-15.221,10.711-22.831a29.251,29.251,0,0,0,.846-3.382c9.02-27.341,13.812-55.528,16.63-84.279a73.855,73.855,0,0,1,.282-7.892" transform="translate(184.232 119.056)" fill="none" stroke="#121212" stroke-miterlimit="10" stroke-width="2"/><path d="M136.615,64.6a74.991,74.991,0,0,1-4.51,10.993c-7.61,12.12-16.348,29.6-24.8,41.435" transform="translate(192.416 117.419)" fill="none" stroke="#121212" stroke-miterlimit="10" stroke-width="2"/><path d="M124.924,176.144a5.9,5.9,0,0,1-1.127,1.691c-9.3-1.691-16.348-7.611-23.677-13.248-2.819-2.255-5.074-5.356-9.02-6.483,18.322-12.4,31.006-29.314,38.616-50.173,3.1-7.329,4.228-15.221,6.765-22.831" transform="translate(162.953 154.702)" fill="none" stroke="#121212" stroke-miterlimit="10" stroke-width="2"/><path d="M300.685,137.64c-34.106-25.65-91.326-64.266-133.043-79.769C46.156,31.093,35.727,123.265,4.157,185.84c-15.221,18.322,28.469,25.086,38.334,31.569,3.382,2.819,11.557,1.409,10.429,6.2-10.147,60.6-8.738,53.837,6.2,61.448,21.986,10.429,64.83,5.919,74.978-1.128,3.946-.846,10.147-1.691,14.657-4.228,87.38-16.349,97.527,9.3,91.326-67.931a2.145,2.145,0,0,1,3.664-1.691C265.733,234.322,304.349,155.116,300.685,137.64Z" transform="translate(-0.969 96.525)" fill="none" stroke="#121212" stroke-miterlimit="10" stroke-width="2"/><path d="M26.5,71.92c10.429,1.409,11.839,2.255,14.375,12.4,1.973,7.892,7.047,13.812,14.375,17.758,4.228,3.664,9.3,3.664,14.375,3.382a33.124,33.124,0,0,0,18.6-9.02c2.255-2.255,4.51-4.792,4.228-8.456-1.127-3.382-4.51-3.664-7.047-5.356-9.865-5.919-12.12-14.375-5.637-23.677,4.51-6.765,8.174-13.812,8.174-22.55,0-9.3-4.228-16.067-10.993-21.7" transform="translate(45.465 26.665)" fill="#121212"/><path d="M91.7,52.488c7.329-20.858-10.993-39.744-34.67-39.18L37.3,29.938,48.857,82.084l16.63,12.684,6.966-3.177L83.245,76.165,91.7,52.488" transform="translate(65.107 24.111)" fill="#121212"/><path d="M23.1,13.8" transform="translate(39.281 25.029)" fill="none" stroke="#121212" stroke-miterlimit="10" stroke-width="2"/><path d="M33.6,104.714c8.174-8.174,9.3-7.611,11.275-13.53,2.255-6.483,5.637-8.174,12.4-8.456,8.738-2.537,18.04-7.611,22.268-16.912,3.664-4.792,1.691-13.53,10.993-14.375,1.691-.282,1.691-2.819,1.409-4.792A24.785,24.785,0,0,1,98.712,27.2c8.174,14.657,9.3,30.442,7.892,46.509-.282,3.1-2.819,4.792-5.637,5.356-3.1.564-5.919,0-9.02.282-2.255.282-5.074.564-5.637,3.1,0,0-11.839,15.5-7.329,18.04" transform="translate(58.377 49.399)" fill="none" stroke="#121212" stroke-linecap="round" stroke-miterlimit="10" stroke-width="2"/><path d="M11.709,58.02c1.127-7.892,1.973-16.067,3.382-23.959,1.973-10.147,7.329-18.6,16.067-23.677,22.55-13.53,43.126-14.657,63.985,1.691,8.456,6.483,11.275,19.449,7.047,31.288-6.483,18.04-15.5,34.388-30.16,47.072C58.5,101.992,32,101.71,20.165,82.825,15.655,74.933,11.427,67.322,11.709,58.02Z" transform="translate(18.539 -0.025)" fill="#121212"/><path d="M117.7,99.382s8.738-36.643,19.731-43.126c10.993-6.765,10.711-12.684,15.785-8.738s9.3,7.047,5.074,20.858S150.4,88.671,146.733,93.463s-7.047,9.584-7.047,9.584" transform="translate(211.33 84.046)" fill="none" stroke="#000" stroke-miterlimit="10" stroke-width="2"/><path d="M87.3,138.545s25.086-22.831,24.8-45.945" transform="translate(156.042 168.342)" fill="none" stroke="#121212" stroke-linecap="round" stroke-linejoin="round" stroke-miterlimit="10" stroke-width="2"/></g></g></svg>