<svg xmlns="http://www.w3.org/2000/svg" width="19.795" height="18.965" viewBox="0 0 19.795 18.965">
  <path id="star_copie" data-name="star copie" d="M19.365,9.642a1.42,1.42,0,0,0-.787-2.421l-4.793-.7a.626.626,0,0,1-.472-.343L11.17,1.838a1.42,1.42,0,0,0-2.546,0L6.481,6.181a.627.627,0,0,1-.472.343l-4.793.7A1.42,1.42,0,0,0,.429,9.642L3.9,13.022a.628.628,0,0,1,.181.555L3.259,18.35a1.39,1.39,0,0,0,.31,1.151,1.434,1.434,0,0,0,1.75.345l4.286-2.254a.642.642,0,0,1,.583,0l4.287,2.254a1.4,1.4,0,0,0,.66.165,1.424,1.424,0,0,0,1.089-.511,1.389,1.389,0,0,0,.31-1.151l-.819-4.773a.627.627,0,0,1,.181-.555Z" transform="translate(0.001 -1.047)" fill="#00d396"/>
</svg>
